<svg xmlns="http://www.w3.org/2000/svg" viewBox="0 0 100 100">
  <title>Anchorage Logo</title>
  <path fill="#1a1a2e" d="M50 5 C47 5 44 7 44 10 L44 18 C33 20 24 28 21 38 L14 38 C11 38 9 40 9 43 C9 46 11 48 14 48 L20 48 C22 55 27 61 34 65 L28 78 C27 81 29 84 32 85 C35 86 38 84 39 81 L44 69 C46 70 48 70 50 70 C52 70 54 70 56 69 L61 81 C62 84 65 86 68 85 C71 84 73 81 72 78 L66 65 C73 61 78 55 80 48 L86 48 C89 48 91 46 91 43 C91 40 89 38 86 38 L79 38 C76 28 67 20 56 18 L56 10 C56 7 53 5 50 5 Z M50 25 C60 25 68 33 68 43 C68 53 60 61 50 61 C40 61 32 53 32 43 C32 33 40 25 50 25 Z M50 35 C45 35 41 39 41 43 C41 47 45 51 50 51 C55 51 59 47 59 43 C59 39 55 35 50 35 Z"/>
</svg>
